<svg width="864" height="451" xmlns="http://www.w3.org/2000/svg" xmlns:xlink="http://www.w3.org/1999/xlink" overflow="hidden"><defs><clipPath id="clip0"><rect x="0" y="0" width="864" height="451"/></clipPath></defs><g clip-path="url(#clip0)"><rect x="0" y="0" width="864" height="450.833" fill="#FFFFFF"/><rect x="267" y="79.9704" width="238" height="102.962" stroke="#000000" stroke-width="4" stroke-miterlimit="8" fill="#C5E0B4"/><text font-family="Calibri,Calibri_MSFontService,sans-serif" font-weight="400" font-size="32" transform="matrix(1 0 0 0.999631 287.612 123)">Signal Detector</text><text font-family="Calibri,Calibri_MSFontService,sans-serif" font-weight="400" font-size="32" transform="matrix(1 0 0 0.999631 306.699 161)">[+ Classifier]</text><rect x="267" y="212.921" width="238" height="102.962" stroke="#000000" stroke-width="4" stroke-miterlimit="8" fill="#BDD7EE"/><text font-family="Calibri,Calibri_MSFontService,sans-serif" font-weight="400" font-size="32" transform="matrix(1 0 0 0.999631 360.862 275)">DSP</text><rect x="267" y="344.873" width="238" height="102.962" stroke="#000000" stroke-width="4" stroke-miterlimit="8" fill="#FFE699"/><text font-family="Calibri,Calibri_MSFontService,sans-serif" font-weight="400" font-size="32" transform="matrix(1 0 0 0.999631 277.995 407)">Signal Generator</text><path d="M180 127.953 247.612 127.953 247.612 135.95 180 135.95ZM243.612 119.956 267.612 131.951 243.612 143.947Z"/><path d="M180 259.904 247.612 259.904 247.612 267.901 180 267.901ZM243.612 251.907 267.612 263.903 243.612 275.898Z"/><path d="M180 392.855 247.612 392.855 247.612 400.852 180 400.852ZM243.612 384.858 267.612 396.853 243.612 408.849Z"/><path d="M505 392.855 572.612 392.855 572.612 400.852 505 400.852ZM568.612 384.858 592.612 396.853 568.612 408.849Z"/><path d="M505 259.904 572.612 259.904 572.612 267.901 505 267.901ZM568.612 251.907 592.612 263.903 568.612 275.898Z"/><path d="M505 127.953 572.612 127.953 572.612 135.95 505 135.95ZM568.612 119.956 592.612 131.951 568.612 143.947Z"/><text fill="#2F5597" font-family="Calibri,Calibri_MSFontService,sans-serif" font-weight="400" font-size="32" transform="matrix(1 0 0 0.999631 18.8172 274)">IQ Samples</text><text fill="#2F5597" font-family="Calibri,Calibri_MSFontService,sans-serif" font-weight="400" font-size="32" transform="matrix(1 0 0 0.999631 607.305 275)">IQ Samples</text><text fill="#2F5597" font-family="Calibri,Calibri_MSFontService,sans-serif" font-weight="400" font-size="32" transform="matrix(1 0 0 0.999631 20.6814 142)">IQ Samples</text><text fill="#2F5597" font-family="Calibri,Calibri_MSFontService,sans-serif" font-weight="400" font-size="32" transform="matrix(1 0 0 0.999631 606.373 407)">IQ Samples</text><text fill="#7E6000" font-family="Calibri,Calibri_MSFontService,sans-serif" font-weight="400" font-size="32" transform="matrix(1 0 0 0.999631 20.6814 406)">Parameters</text><text fill="#385723" font-family="Calibri,Calibri_MSFontService,sans-serif" font-weight="400" font-size="32" transform="matrix(1 0 0 0.999631 602.511 143)">SigMF Annotations</text><text font-family="Calibri,Calibri_MSFontService,sans-serif" font-weight="700" font-size="37" transform="matrix(1 0 0 0.999631 214.02 27)">IQEngine Plugin Types</text><path d="M0 38.9856 85.2185 38.9856 170.437 38.9856 255.656 38.9856 340.874 38.9856 340.874 40.9849 255.656 40.9849 170.437 40.9849 85.2185 40.9849 0 40.9849Z" fill-rule="evenodd" transform="matrix(1.00037 0 0 1 214.02 -8.09501)"/></g></svg>