<?xml version="1.0" encoding="UTF-8" standalone="no"?>
<svg
   viewBox="0 0 127.14025 96.359999"
   version="1.1"
   id="svg11"
   sodipodi:docname="discord.svg"
   inkscape:version="1.2.1 (9c6d41e410, 2022-07-14)"
   xml:space="preserve"
   width="127.14026"
   height="96.360001"
   xmlns:inkscape="http://www.inkscape.org/namespaces/inkscape"
   xmlns:sodipodi="http://sodipodi.sourceforge.net/DTD/sodipodi-0.dtd"
   xmlns="http://www.w3.org/2000/svg"
   xmlns:svg="http://www.w3.org/2000/svg"><sodipodi:namedview
     id="namedview13"
     pagecolor="#ffffff"
     bordercolor="#000000"
     borderopacity="0.25"
     inkscape:showpageshadow="2"
     inkscape:pageopacity="0.0"
     inkscape:pagecheckerboard="0"
     inkscape:deskcolor="#d1d1d1"
     showgrid="false"
     inkscape:zoom="4.7585339"
     inkscape:cx="19.123537"
     inkscape:cy="53.798083"
     inkscape:window-width="2560"
     inkscape:window-height="1369"
     inkscape:window-x="-8"
     inkscape:window-y="-8"
     inkscape:window-maximized="1"
     inkscape:current-layer="svg11" /><defs
     id="defs4"><style
       id="style2">.cls-1{fill:#5865f2;}</style></defs><g
     id="图层_2"
     data-name="图层 2"
     style="fill:#04b889;fill-opacity:1"
     transform="translate(-9.5991498e-5)"><g
       id="Discord_Logos"
       data-name="Discord Logos"
       style="fill:#04b889;fill-opacity:1"><g
         id="Discord_Logo_-_Large_-_White"
         data-name="Discord Logo - Large - White"
         style="fill:#04b889;fill-opacity:1"><path
           class="cls-1"
           d="M 107.7,8.07 A 105.15,105.15 0 0 0 81.47,0 72.06,72.06 0 0 0 78.11,6.83 97.68,97.68 0 0 0 49,6.83 72.37,72.37 0 0 0 45.64,0 105.89,105.89 0 0 0 19.39,8.09 C 2.79,32.65 -1.71,56.6 0.54,80.21 v 0 A 105.73,105.73 0 0 0 32.71,96.36 77.7,77.7 0 0 0 39.6,85.25 68.42,68.42 0 0 1 28.75,80.07 c 0.91,-0.66 1.8,-1.34 2.66,-2 a 75.57,75.57 0 0 0 64.32,0 c 0.87,0.71 1.76,1.39 2.66,2 a 68.68,68.68 0 0 1 -10.87,5.19 77,77 0 0 0 6.89,11.1 105.25,105.25 0 0 0 32.19,-16.14 v 0 C 129.24,52.84 122.09,29.11 107.7,8.07 Z M 42.45,65.69 C 36.18,65.69 31,60 31,53 31,46 36,40.26 42.43,40.26 48.86,40.26 54,46 53.89,53 53.78,60 48.84,65.69 42.45,65.69 Z m 42.24,0 C 78.41,65.69 73.25,60 73.25,53 c 0,-7 5,-12.74 11.44,-12.74 6.44,0 11.54,5.74 11.43,12.74 -0.11,7 -5.04,12.69 -11.43,12.69 z"
           id="path6"
           style="fill:#04b889;fill-opacity:1" /></g></g></g></svg>
