<?xml version="1.0" standalone="no"?>
<!DOCTYPE svg PUBLIC "-//W3C//DTD SVG 20010904//EN"
 "http://www.w3.org/TR/2001/REC-SVG-20010904/DTD/svg10.dtd">
<svg version="1.0" xmlns="http://www.w3.org/2000/svg"
 width="369.000000pt" height="322.000000pt" viewBox="0 0 369.000000 322.000000"
 preserveAspectRatio="xMidYMid meet">

<g transform="translate(0.000000,322.000000) scale(0.100000,-0.100000)"
fill="#000000" stroke="none">
<path d="M850 2265 c0 -148 1 -155 20 -155 19 0 20 7 20 155 0 148 -1 155 -20
155 -19 0 -20 -7 -20 -155z"/>
<path d="M970 2266 c0 -149 1 -156 20 -156 19 0 20 7 20 113 1 130 -4 131 92
-22 42 -66 63 -91 78 -91 19 0 20 6 20 155 0 148 -1 155 -20 155 -18 0 -20 -8
-22 -115 l-3 -115 -70 113 c-51 80 -77 113 -93 115 -22 3 -22 3 -22 -152z"/>
<path d="M1240 2400 c0 -17 7 -20 40 -20 l40 0 0 -135 0 -135 25 0 25 0 0 135
0 135 45 0 c38 0 45 3 45 20 0 19 -7 20 -110 20 -103 0 -110 -1 -110 -20z"/>
<path d="M1490 2265 l0 -155 100 0 c93 0 100 1 100 20 0 18 -7 20 -80 20 l-80
0 0 45 0 45 64 0 c55 0 64 3 69 19 7 28 1 31 -70 31 l-63 0 0 45 0 45 80 0
c73 0 80 2 80 20 0 19 -7 20 -100 20 l-100 0 0 -155z"/>
<path d="M1750 2265 c0 -148 1 -155 20 -155 18 0 20 7 20 65 l0 65 35 0 c33 0
37 -3 67 -65 26 -52 37 -65 55 -65 13 0 23 2 23 5 0 3 -14 33 -31 66 l-30 61
25 25 c35 35 36 94 1 128 -22 22 -32 25 -105 25 l-80 0 0 -155z m164 83 c15
-43 -15 -70 -73 -66 l-46 3 -3 48 -3 48 58 -3 c53 -3 58 -5 67 -30z"/>
<path d="M2040 2266 c0 -149 1 -156 20 -156 19 0 20 7 20 113 1 130 -4 131 92
-22 42 -66 63 -91 78 -91 19 0 20 6 20 155 0 148 -1 155 -20 155 -18 0 -20 -8
-22 -115 l-3 -115 -71 112 c-50 79 -78 114 -93 116 -21 3 -21 1 -21 -152z"/>
<path d="M2379 2274 c-30 -81 -55 -151 -57 -156 -2 -4 8 -8 22 -8 20 0 27 7
34 33 8 32 9 32 74 35 l65 3 9 -33 c7 -23 17 -34 32 -36 13 -2 22 2 21 10 0 7
-24 76 -52 153 -72 192 -76 192 -148 -1z m117 -51 c-2 -2 -24 -3 -48 -1 l-45
3 26 69 25 69 23 -68 c13 -38 21 -70 19 -72z"/>
<path d="M2630 2265 l0 -155 100 0 c93 0 100 1 100 20 0 18 -7 20 -80 20 l-80
0 0 135 c0 128 -1 135 -20 135 -19 0 -20 -7 -20 -155z"/>
<path d="M2803 1893 c-60 -12 -90 -86 -81 -200 4 -48 10 -61 37 -85 25 -22 41
-28 77 -28 39 0 51 5 75 31 25 26 29 39 29 86 l0 54 -52 -3 c-41 -2 -54 -7
-56 -20 -3 -15 4 -18 34 -18 36 0 36 -1 30 -32 -7 -39 -30 -58 -66 -58 -46 0
-60 27 -60 117 0 89 14 113 63 113 25 0 57 -23 57 -41 0 -5 11 -9 25 -9 29 0
30 2 11 38 -20 39 -75 64 -123 55z"/>
<path d="M850 1735 l0 -155 81 0 c76 0 82 2 111 30 25 26 29 36 24 63 -3 18
-15 40 -27 49 l-20 17 21 21 c28 28 27 80 -3 108 -20 19 -35 22 -105 22 l-82
0 0 -155z m158 103 c7 -7 12 -21 12 -33 0 -33 -20 -45 -77 -45 l-53 0 0 45 0
45 53 0 c29 0 58 -5 65 -12z m0 -130 c19 -19 15 -66 -7 -78 -11 -5 -40 -10
-65 -10 l-46 0 0 50 0 50 53 0 c29 0 58 -5 65 -12z"/>
<path d="M1130 1735 c0 -148 1 -155 20 -155 18 0 20 7 20 65 l0 65 35 0 c33 0
37 -3 67 -65 26 -52 37 -65 55 -65 13 0 23 2 23 5 0 3 -14 33 -31 66 l-30 61
25 25 c35 35 36 94 1 128 -22 22 -32 25 -105 25 l-80 0 0 -155z m164 83 c15
-43 -15 -70 -73 -66 l-46 3 -3 48 -3 48 58 -3 c53 -3 58 -5 67 -30z"/>
<path d="M1449 1744 c-30 -81 -55 -151 -57 -156 -2 -4 8 -8 21 -8 20 0 28 7
37 35 l12 35 62 0 c63 0 63 0 72 -32 7 -23 17 -34 32 -36 28 -4 28 1 -7 95
-16 43 -40 107 -53 143 -18 48 -29 66 -44 68 -18 3 -28 -16 -75 -144z m115
-31 c7 -22 5 -23 -42 -23 l-49 0 25 72 26 71 16 -49 c10 -27 20 -59 24 -71z"/>
<path d="M1700 1735 c0 -148 1 -155 20 -155 19 0 20 7 20 113 1 130 -4 131 92
-22 42 -66 63 -91 78 -91 19 0 20 6 20 155 0 148 -1 155 -20 155 -19 0 -20 -7
-20 -117 l0 -118 -46 70 c-24 39 -58 91 -74 118 -20 31 -37 47 -50 47 -19 0
-20 -6 -20 -155z"/>
<path d="M2010 1735 l0 -155 68 0 c121 0 160 50 149 190 -4 56 -9 68 -36 92
-28 25 -38 28 -106 28 l-75 0 0 -155z m148 99 c20 -13 22 -24 22 -95 0 -98
-15 -119 -85 -119 l-45 0 0 115 0 115 43 0 c23 0 53 -7 65 -16z"/>
<path d="M2300 1735 c0 -148 1 -155 20 -155 19 0 20 7 20 155 0 148 -1 155
-20 155 -19 0 -20 -7 -20 -155z"/>
<path d="M2420 1735 c0 -148 1 -155 20 -155 19 0 20 7 20 113 1 130 -4 131 92
-22 42 -66 63 -91 78 -91 19 0 20 6 20 155 0 148 -1 155 -20 155 -19 0 -20 -7
-20 -117 l0 -118 -46 70 c-24 39 -58 91 -74 118 -20 31 -37 47 -50 47 -19 0
-20 -6 -20 -155z"/>
<path d="M850 1205 l0 -155 100 0 c93 0 100 1 100 20 0 18 -7 20 -80 20 l-80
0 0 45 0 45 64 0 c67 0 80 7 70 34 -5 12 -21 16 -70 16 l-64 0 0 45 0 45 80 0
c73 0 80 2 80 20 0 19 -7 20 -100 20 l-100 0 0 -155z"/>
<path d="M1092 1338 c9 -13 30 -47 48 -76 l32 -53 -46 -75 c-25 -41 -46 -77
-46 -79 0 -3 10 -5 23 -5 17 0 30 14 56 61 l34 61 33 -53 c19 -30 34 -57 34
-61 0 -9 50 -11 50 -3 0 2 -21 38 -46 80 l-47 75 46 75 c45 73 45 75 21 75
-19 0 -31 -12 -55 -55 -17 -30 -32 -55 -34 -55 -2 0 -18 25 -35 55 -25 44 -37
55 -57 55 -24 0 -25 -1 -11 -22z"/>
<path d="M1389 1214 c-30 -81 -55 -151 -57 -156 -2 -4 7 -8 20 -8 18 0 27 8
37 35 12 35 12 35 75 35 63 0 63 0 72 -32 7 -23 17 -34 32 -36 12 -2 22 1 22
6 0 5 -24 74 -53 153 -73 196 -76 196 -148 3z m115 -31 c7 -22 4 -23 -38 -23
-25 0 -46 4 -46 8 0 4 10 37 22 72 l21 64 17 -49 c9 -28 20 -60 24 -72z"/>
<path d="M1640 1206 c0 -149 1 -156 20 -156 19 0 20 7 21 103 l1 102 39 -83
c24 -50 44 -82 52 -79 13 4 26 26 62 107 l24 55 0 -102 c1 -96 2 -103 21 -103
18 0 20 7 21 83 1 45 2 114 3 152 1 64 -1 70 -20 73 -18 3 -28 -12 -65 -97
-24 -55 -46 -98 -49 -95 -3 3 -24 47 -46 97 -31 70 -47 93 -63 95 -21 3 -21 1
-21 -152z"/>
<path d="M1980 1205 c0 -148 1 -155 20 -155 18 0 20 7 20 60 l0 60 54 0 c44 0
60 5 85 26 26 22 31 33 31 70 0 34 -6 51 -25 69 -22 22 -32 25 -105 25 l-80 0
0 -155z m160 96 c28 -53 -2 -91 -72 -91 l-48 0 0 55 0 55 55 0 c43 0 56 -4 65
-19z"/>
<path d="M2250 1205 l0 -155 100 0 c93 0 100 1 100 20 0 18 -7 20 -80 20 l-80
0 0 135 c0 128 -1 135 -20 135 -19 0 -20 -7 -20 -155z"/>
<path d="M2500 1205 l0 -155 100 0 c93 0 100 1 100 20 0 18 -7 20 -80 20 l-80
0 0 45 0 44 68 3 c59 3 67 5 67 23 0 18 -8 20 -67 23 l-68 3 0 44 0 45 80 0
c73 0 80 2 80 20 0 19 -7 20 -100 20 l-100 0 0 -155z"/>
</g>
</svg>
