<?xml version="1.0" encoding="UTF-8" standalone="no"?>
<!-- Created with Inkscape (http://www.inkscape.org/) -->

<svg
   width="98.074257mm"
   height="26.084579mm"
   viewBox="0 0 98.074255 26.084579"
   version="1.1"
   id="svg5"
   inkscape:version="1.2.1 (9c6d41e410, 2022-07-14)"
   sodipodi:docname="IQEngine.svg"
   xml:space="preserve"
   xmlns:inkscape="http://www.inkscape.org/namespaces/inkscape"
   xmlns:sodipodi="http://sodipodi.sourceforge.net/DTD/sodipodi-0.dtd"
   xmlns:xlink="http://www.w3.org/1999/xlink"
   xmlns="http://www.w3.org/2000/svg"
   xmlns:svg="http://www.w3.org/2000/svg"><sodipodi:namedview
     id="namedview7"
     pagecolor="#ffffff"
     bordercolor="#000000"
     borderopacity="0.25"
     inkscape:showpageshadow="2"
     inkscape:pageopacity="0.0"
     inkscape:pagecheckerboard="0"
     inkscape:deskcolor="#d1d1d1"
     inkscape:document-units="mm"
     showgrid="false"
     inkscape:zoom="3.6596241"
     inkscape:cx="190.59335"
     inkscape:cy="68.039775"
     inkscape:window-width="2560"
     inkscape:window-height="1369"
     inkscape:window-x="-8"
     inkscape:window-y="-8"
     inkscape:window-maximized="1"
     inkscape:current-layer="layer1"
     inkscape:pageshadow="2" /><defs
     id="defs2"><linearGradient
       inkscape:collect="always"
       id="linearGradient13601"><stop
         style="stop-color:#30b47a;stop-opacity:1;"
         offset="0"
         id="stop13595" /><stop
         style="stop-color:#8bd546;stop-opacity:1;"
         offset="0.5"
         id="stop13597" /><stop
         style="stop-color:#fde724;stop-opacity:1;"
         offset="1"
         id="stop13599" /></linearGradient><linearGradient
       inkscape:collect="always"
       id="linearGradient11521"><stop
         style="stop-color:#3f4788;stop-opacity:1;"
         offset="0"
         id="stop11515" /><stop
         style="stop-color:#2d6e8e;stop-opacity:1;"
         offset="0.5"
         id="stop11517" /><stop
         style="stop-color:#1f928b;stop-opacity:1;"
         offset="1"
         id="stop11519" /></linearGradient><linearGradient
       inkscape:collect="always"
       id="linearGradient7501"><stop
         style="stop-color:#440154;stop-opacity:1;"
         offset="0"
         id="stop7497" /><stop
         style="stop-color:#433b83;stop-opacity:1;"
         offset="1"
         id="stop7499" /></linearGradient><linearGradient
       inkscape:collect="always"
       id="linearGradient11495"><stop
         style="stop-color:#30b47a;stop-opacity:1;"
         offset="0"
         id="stop11491" /><stop
         style="stop-color:#8bd546;stop-opacity:1;"
         offset="0.5"
         id="stop12741" /><stop
         style="stop-color:#fde724;stop-opacity:1;"
         offset="1"
         id="stop11493" /></linearGradient><linearGradient
       inkscape:collect="always"
       id="linearGradient7690"><stop
         style="stop-color:#3f4587;stop-opacity:1;"
         offset="0"
         id="stop7686" /><stop
         style="stop-color:#2d6e8e;stop-opacity:1;"
         offset="0.5"
         id="stop9695" /><stop
         style="stop-color:#1f928c;stop-opacity:1;"
         offset="1"
         id="stop7688" /></linearGradient><linearGradient
       inkscape:collect="always"
       id="linearGradient4577"><stop
         style="stop-color:#440154;stop-opacity:1;"
         offset="0"
         id="stop4573" /><stop
         style="stop-color:#433a83;stop-opacity:1;"
         offset="1"
         id="stop4575" /></linearGradient><linearGradient
       inkscape:collect="always"
       xlink:href="#linearGradient11495"
       id="linearGradient335"
       gradientUnits="userSpaceOnUse"
       x1="34.450638"
       y1="109.91164"
       x2="117.09185"
       y2="109.91164"
       gradientTransform="matrix(0.41216005,0,0,0.28500975,79.366812,60.640331)" /><linearGradient
       inkscape:collect="always"
       xlink:href="#linearGradient13601"
       id="linearGradient337"
       gradientUnits="userSpaceOnUse"
       x1="34.450638"
       y1="109.91164"
       x2="117.09185"
       y2="109.91164"
       gradientTransform="matrix(0.41216005,0,0,0.28500975,79.366812,60.640331)" /><linearGradient
       inkscape:collect="always"
       xlink:href="#linearGradient4577"
       id="linearGradient339"
       gradientUnits="userSpaceOnUse"
       x1="61.298634"
       y1="109.91164"
       x2="102.24335"
       y2="109.91164"
       gradientTransform="matrix(0.41216005,0,0,0.28500975,4.2882861,60.640395)" /><linearGradient
       inkscape:collect="always"
       xlink:href="#linearGradient7501"
       id="linearGradient341"
       gradientUnits="userSpaceOnUse"
       x1="61.298634"
       y1="109.91164"
       x2="102.24335"
       y2="109.91164"
       gradientTransform="matrix(0.41216005,0,0,0.28500975,4.2882861,60.640395)" /><linearGradient
       inkscape:collect="always"
       xlink:href="#linearGradient7690"
       id="linearGradient343"
       gradientUnits="userSpaceOnUse"
       x1="46.333309"
       y1="109.91164"
       x2="117.09185"
       y2="109.91164"
       gradientTransform="matrix(0.41216005,0,0,0.28500975,31.401088,60.640331)" /><linearGradient
       inkscape:collect="always"
       xlink:href="#linearGradient11521"
       id="linearGradient345"
       gradientUnits="userSpaceOnUse"
       x1="46.333309"
       y1="109.91164"
       x2="117.09185"
       y2="109.91164"
       gradientTransform="matrix(0.41216005,0,0,0.28500975,31.401088,60.640331)" /></defs><g
     inkscape:label="Layer 1"
     inkscape:groupmode="layer"
     id="layer1"
     transform="translate(-29.553134,-68.139091)"><path
       d="M 33.526375,72.431076 V 89.360275 H 29.570028 V 72.431076 Z"
       style="font-size:25.4px;line-height:0;font-family:'Franklin Gothic Demi';-inkscape-font-specification:'Franklin Gothic Demi';text-align:center;text-anchor:middle;fill:#b2b0af;fill-opacity:1;stroke:none;stroke-width:0.264583;stroke-opacity:1"
       id="path2397" /><path
       d="m 50.108309,92.696506 q -0.719336,0.16123 -1.413867,0.16123 -2.269629,0 -3.038574,-0.979785 -0.768946,-0.967383 -0.892969,-2.443262 -0.95498,0.111621 -1.599902,0.111621 -3.212207,0 -5.134571,-2.505273 -1.909961,-2.517676 -1.909961,-6.151562 0,-3.547071 1.84795,-6.126758 1.847949,-2.59209 5.444629,-2.59209 3.54707,0 5.407421,2.579688 1.860352,2.567285 1.860352,6.176367 0,2.902148 -1.066602,4.836914 -1.054199,1.922363 -2.492871,2.75332 0,1.302246 1.488281,1.302246 0.434082,0 1.500684,-0.124023 z M 43.398641,75.407639 q -3.12539,0 -3.12539,5.481836 0,5.50664 3.112988,5.50664 3.150195,0 3.150195,-5.432226 0,-5.55625 -3.137793,-5.55625 z"
       style="font-size:25.4px;line-height:0;font-family:'Franklin Gothic Demi';-inkscape-font-specification:'Franklin Gothic Demi';text-align:center;text-anchor:middle;fill:#b2b0af;fill-opacity:1;stroke:none;stroke-width:0.264583;stroke-opacity:1"
       id="path2399" /><path
       d="m 65.363191,75.655686 h -8.073926 v 3.472656 h 6.35 v 3.187402 h -6.35 v 3.695899 h 8.073926 v 3.348632 H 53.258504 V 72.431076 h 12.104687 z"
       style="font-size:25.4px;line-height:0;font-family:'Franklin Gothic Demi';-inkscape-font-specification:'Franklin Gothic Demi';text-align:center;text-anchor:middle;fill:#b2b0af;fill-opacity:1;stroke:none;stroke-width:0.264583;stroke-opacity:1"
       id="path2401" /><path
       d="m 78.460065,89.360275 h -3.695899 v -7.032129 q 0,-1.277441 -0.09922,-1.74873 -0.09922,-0.471289 -0.483691,-0.79375 -0.384473,-0.334863 -0.967383,-0.334863 -1.947168,0 -1.947168,2.877343 v 7.032129 H 67.570807 V 76.833908 h 3.435449 v 2.120801 q 0.855762,-1.513086 1.686719,-1.947168 0.830957,-0.434082 1.79834,-0.434082 1.785937,0 2.877343,0.967383 1.091407,0.95498 1.091407,3.770312 z"
       style="font-size:25.4px;line-height:0;font-family:'Franklin Gothic Demi';-inkscape-font-specification:'Franklin Gothic Demi';text-align:center;text-anchor:middle;fill:#b2b0af;fill-opacity:1;stroke:none;stroke-width:0.264583;stroke-opacity:1"
       id="path2403" /><path
       d="m 94.025007,77.119162 q -0.582911,-0.124023 -0.979785,-0.124023 -1.227833,0 -1.438672,1.091406 1.004589,1.054199 1.004589,2.38125 0,1.773535 -1.488281,2.827734 -1.475879,1.054199 -4.266406,1.054199 -0.992187,0 -1.934766,-0.186035 -0.632519,0.372071 -0.632519,0.954981 0,0.644922 0.533301,0.855761 0.5333,0.21084 2.567285,0.310059 2.889746,0.148828 3.981152,0.359668 1.091406,0.21084 1.835547,1.016992 0.744141,0.806153 0.744141,2.00918 0,1.723926 -1.599903,2.914551 -1.5875,1.190625 -5.643066,1.190625 -3.80752,0 -5.13457,-0.830957 -1.327051,-0.818555 -1.327051,-2.083594 0,-1.674317 2.145605,-2.257227 -1.5875,-0.79375 -1.5875,-2.232422 0,-1.798339 2.505274,-2.802929 -2.22002,-0.917774 -2.22002,-3.063379 0,-1.74873 1.525489,-2.840137 1.53789,-1.091406 4.241601,-1.091406 1.711523,0 3.311426,0.545703 0.111621,-1.066601 0.620117,-1.74873 0.520898,-0.694532 2.195215,-0.694532 0.545703,0 1.041797,0.09922 z m -7.19336,1.451074 q -0.95498,0 -1.500683,0.520899 -0.533301,0.508496 -0.533301,1.351855 0,1.909961 2.046387,1.909961 0.992187,0 1.550293,-0.558105 0.570507,-0.558106 0.570507,-1.351856 0,-0.74414 -0.5333,-1.302246 -0.533301,-0.570508 -1.599903,-0.570508 z m -2.468066,10.703223 q -0.223242,0 -0.570508,0.297656 -0.334863,0.297656 -0.334863,0.719336 0,0.843359 1.079004,1.054199 1.079004,0.21084 2.530078,0.21084 1.897558,0 2.654101,-0.285254 0.768946,-0.285254 0.768946,-0.917773 0,-0.483692 -0.644922,-0.744141 -0.63252,-0.260449 -3.398242,-0.260449 l -0.744141,0.0124 q -0.682129,0 -0.917773,-0.03721 -0.26045,-0.04961 -0.42168,-0.04961 z"
       style="font-size:25.4px;line-height:0;font-family:'Franklin Gothic Demi';-inkscape-font-specification:'Franklin Gothic Demi';text-align:center;text-anchor:middle;fill:#b2b0af;fill-opacity:1;stroke:none;stroke-width:0.264583;stroke-opacity:1"
       id="path2405" /><path
       style="font-size:25.4px;line-height:0;font-family:'Franklin Gothic Demi';-inkscape-font-specification:'Franklin Gothic Demi';text-align:center;text-anchor:middle;fill:#b2b0af;fill-opacity:1;stroke:none;stroke-width:0.264583;stroke-opacity:1"
       d="M 99.258797,76.833908 V 89.360275 H 95.562899 V 76.833908 Z"
       id="path2407" /><path
       d="m 113.18663,89.360275 h -3.6959 v -7.032129 q 0,-1.277441 -0.0992,-1.74873 -0.0992,-0.471289 -0.48369,-0.79375 -0.38447,-0.334863 -0.96738,-0.334863 -1.94717,0 -1.94717,2.877343 v 7.032129 h -3.6959 V 76.833908 h 3.43545 v 2.120801 q 0.85576,-1.513086 1.68672,-1.947168 0.83096,-0.434082 1.79834,-0.434082 1.78594,0 2.87734,0.967383 1.09141,0.95498 1.09141,3.770312 z"
       style="font-size:25.4px;line-height:0;font-family:'Franklin Gothic Demi';-inkscape-font-specification:'Franklin Gothic Demi';text-align:center;text-anchor:middle;fill:#b2b0af;fill-opacity:1;stroke:none;stroke-width:0.264583;stroke-opacity:1"
       id="path2409" /><path
       d="m 127.48653,83.717209 h -8.06152 c -0.008,0.223242 -0.0124,0.417545 -0.0124,0.58291 0,0.892969 0.23565,1.566829 0.70694,2.021582 0.47955,0.454753 1.05006,0.682129 1.71152,0.682129 1.23197,0 1.97197,-0.657324 2.22002,-1.971973 l 3.43262,0.0026 -0.084,0.245439 c -0.93431,2.89388 -2.83186,4.34082 -5.69267,4.34082 -1.24851,0 -2.31097,-0.248047 -3.1874,-0.74414 -0.86817,-0.504362 -1.5875,-1.2361 -2.15801,-2.195215 -0.56224,-0.959115 -0.84336,-2.108398 -0.84336,-3.447851 0,-1.992643 0.56637,-3.600814 1.69912,-4.824512 1.14101,-1.223698 2.60449,-1.835547 4.39043,-1.835547 1.61231,0 2.9931,0.570508 4.14238,1.711523 1.15755,1.132748 1.73633,2.94349 1.73633,5.432227 z m -8.07393,-2.145605 h 4.45245 c -0.11576,-1.719792 -0.82269,-2.579688 -2.1208,-2.579688 -1.38907,0 -2.16628,0.859896 -2.33165,2.579688 z"
       style="font-size:25.4px;line-height:0;font-family:'Franklin Gothic Demi';-inkscape-font-specification:'Franklin Gothic Demi';text-align:center;text-anchor:middle;fill:#b2b0af;fill-opacity:1;stroke:none;stroke-width:0.264583;stroke-opacity:1"
       id="path2411"
       sodipodi:nodetypes="ccscscccsccscscscccsc" /><path
       fill="none"
       stroke="#02063b"
       paint-order="fill stroke markers"
       d="m 94.218757,93.821953 c 0.560274,-0.186613 0.897341,-0.425038 1.228526,-0.656007 1.068163,-0.786715 1.767162,-1.617066 2.836688,-2.403613 0.330142,-0.22984 0.666405,-0.467085 1.224826,-0.652624 0.255794,-0.08592 0.656613,-0.153218 1.033253,-0.106955 0.49695,0.06295 0.80141,0.212896 1.07334,0.349863 0.6595,0.35909 1.09813,0.752118 1.54713,1.140259 0.67282,0.58867 1.25444,1.188844 2.06477,1.761124 0.31815,0.21132 0.64456,0.430857 1.1926,0.594313 0.25667,0.07808 0.65416,0.125587 0.99667,0.07491 0.49741,-0.07356 0.79929,-0.228142 1.07335,-0.370618 0.67093,-0.376686 1.12094,-0.78641 1.58446,-1.191138 0.64527,-0.569156 1.21269,-1.148427 2.00195,-1.700363 0.31704,-0.208282 0.64251,-0.425263 1.19253,-0.584105 0.25988,-0.07685 0.66177,-0.118333 0.99668,-0.06471 0.50331,0.07985 0.80611,0.239163 1.08346,0.386371 0.67701,0.387795 1.13404,0.807928 1.6067,1.222999 0.63025,0.55824 1.18959,1.125937 1.96966,1.666199 0.31392,0.204118 0.63696,0.41698 1.18263,0.571196 0.26261,0.07634 0.66894,0.114138 0.99961,0.05825 0.50124,-0.08308 0.80279,-0.243281 1.08024,-0.391814 0.68298,-0.394599 1.1447,-0.821461 1.62359,-1.243136 0.62278,-0.552699 1.17804,-1.11455 1.95422,-1.648792 0.31178,-0.201391 0.63331,-0.411446 1.17558,-0.562761"
       stroke-linecap="round"
       stroke-linejoin="round"
       stroke-miterlimit="10"
       stroke-width="0.660591"
       id="path4065"
       style="font-size:25.4px;line-height:0;-inkscape-font-specification:sans-serif;text-align:center;text-anchor:middle;fill:none;stroke:url(#linearGradient335);stroke-width:0.665002;stroke-linecap:round;stroke-miterlimit:4;stroke-dasharray:none;stroke-opacity:1"
       sodipodi:nodetypes="cccccccccccccccccccccccc" /><path
       fill="none"
       stroke="#02063b"
       paint-order="fill stroke markers"
       d="m 93.965838,92.427326 c 0.451582,0.390965 0.892131,0.786875 1.554284,1.148863 0.271894,0.137506 0.575543,0.287874 1.071715,0.352323 0.379008,0.04812 0.785482,-0.01967 1.043036,-0.106559 0.560274,-0.186613 0.897341,-0.425038 1.228527,-0.656007 1.068162,-0.786715 1.76716,-1.617066 2.83669,-2.403613 0.33014,-0.22984 0.6664,-0.467085 1.22482,-0.652624 0.2558,-0.08592 0.65661,-0.153218 1.03325,-0.106955 0.49695,0.06295 0.80142,0.212896 1.07335,0.349863 0.6595,0.35909 1.09812,0.752118 1.54713,1.140259 0.67282,0.58867 1.25444,1.188844 2.06477,1.761124 0.31815,0.21132 0.64455,0.430857 1.19259,0.594313 0.25667,0.07808 0.65416,0.125587 0.99668,0.07491 0.49741,-0.07356 0.79929,-0.228142 1.07334,-0.370618 0.67094,-0.376686 1.12095,-0.78641 1.58447,-1.191138 0.64526,-0.569156 1.21269,-1.148427 2.00195,-1.700363 0.31704,-0.208282 0.6425,-0.425263 1.19253,-0.584105 0.25987,-0.07685 0.66177,-0.118333 0.99667,-0.06471 0.50332,0.07985 0.80612,0.239163 1.08347,0.386371 0.67701,0.387795 1.13404,0.807928 1.6067,1.222999 0.63025,0.55824 1.18959,1.125937 1.96967,1.666199 0.31391,0.204118 0.63695,0.41698 1.18262,0.571196 0.26261,0.07634 0.66894,0.114138 0.99961,0.05825 0.50124,-0.08308 0.8028,-0.243281 1.08025,-0.391814 0.68297,-0.394599 1.14469,-0.821461 1.62359,-1.243136"
       stroke-linecap="round"
       stroke-linejoin="round"
       stroke-miterlimit="10"
       stroke-width="0.660591"
       id="path4065-0"
       style="font-size:25.4px;line-height:0;-inkscape-font-specification:sans-serif;text-align:center;text-anchor:middle;fill:none;stroke:url(#linearGradient337);stroke-width:0.665002;stroke-linecap:round;stroke-miterlimit:4;stroke-dasharray:none;stroke-opacity:1"
       sodipodi:nodetypes="ccccccccccccccccccccccccc" /><path
       fill="none"
       stroke="#02063b"
       paint-order="fill stroke markers"
       d="m 30.148765,93.254064 c 0.318149,0.21132 0.644555,0.430857 1.192596,0.594313 0.256671,0.07808 0.654161,0.125587 0.996678,0.07492 0.497409,-0.07356 0.799286,-0.228142 1.073344,-0.370618 0.670932,-0.376686 1.120942,-0.78641 1.584462,-1.191138 0.645267,-0.569156 1.212691,-1.148427 2.001951,-1.700363 0.317038,-0.208282 0.642506,-0.425263 1.192527,-0.584105 0.259879,-0.07685 0.661771,-0.118333 0.996679,-0.06471 0.503315,0.07985 0.806115,0.239163 1.083462,0.386371 0.677015,0.387795 1.134042,0.807928 1.6067,1.222999 0.630254,0.55824 1.189591,1.125937 1.969665,1.666199 0.313918,0.204118 0.636952,0.41698 1.182623,0.571196 0.262616,0.07634 0.668938,0.114138 0.99961,0.05825"
       stroke-linecap="round"
       stroke-linejoin="round"
       stroke-miterlimit="10"
       stroke-width="0.660591"
       id="path4065-2"
       style="font-size:25.4px;line-height:0;-inkscape-font-specification:sans-serif;text-align:center;text-anchor:middle;fill:none;stroke:url(#linearGradient339);stroke-width:0.665002;stroke-linecap:round;stroke-miterlimit:4;stroke-dasharray:none;stroke-opacity:1"
       sodipodi:nodetypes="ccccccccccccc" /><path
       fill="none"
       stroke="#02063b"
       paint-order="fill stroke markers"
       d="m 29.952983,90.352681 c 0.6595,0.35909 1.098123,0.752118 1.547129,1.140259 0.672823,0.58867 1.254438,1.188844 2.064769,1.761124 0.318149,0.21132 0.644555,0.430857 1.192597,0.594313 0.25667,0.07808 0.654161,0.125587 0.996677,0.07492 0.49741,-0.07356 0.799286,-0.228142 1.073344,-0.370618 0.670932,-0.376686 1.120943,-0.78641 1.584463,-1.191138 0.645267,-0.569156 1.21269,-1.148427 2.001951,-1.700363 0.317038,-0.208282 0.642505,-0.425263 1.192527,-0.584105 0.259878,-0.07685 0.66177,-0.118333 0.996679,-0.06471 0.503315,0.07985 0.806115,0.239163 1.083462,0.386371"
       stroke-linecap="round"
       stroke-linejoin="round"
       stroke-miterlimit="10"
       stroke-width="0.660591"
       id="path4065-0-82"
       style="font-size:25.4px;line-height:0;-inkscape-font-specification:sans-serif;text-align:center;text-anchor:middle;fill:none;stroke:url(#linearGradient341);stroke-width:0.665002;stroke-linecap:round;stroke-miterlimit:4;stroke-dasharray:none;stroke-opacity:1"
       sodipodi:nodetypes="ccccccccccc" /><path
       fill="none"
       stroke="#02063b"
       paint-order="fill stroke markers"
       d="m 51.543073,90.109709 c 0.255794,-0.08592 0.656611,-0.153218 1.033252,-0.106955 0.49695,0.06295 0.801411,0.212896 1.073344,0.349863 0.6595,0.35909 1.098122,0.752118 1.547128,1.140259 0.672824,0.58867 1.254439,1.188844 2.06477,1.761124 0.318149,0.21132 0.644555,0.430857 1.192596,0.594313 0.256671,0.07808 0.654161,0.125587 0.996678,0.07491 0.497409,-0.07356 0.799286,-0.228142 1.073343,-0.370618 0.670933,-0.376686 1.120943,-0.78641 1.584463,-1.191138 0.645267,-0.569156 1.212691,-1.148427 2.001951,-1.700363 0.317038,-0.208282 0.642506,-0.425263 1.192527,-0.584105 0.259878,-0.07685 0.661771,-0.118333 0.996679,-0.06471 0.503315,0.07985 0.806115,0.239163 1.083462,0.386371 0.677015,0.387795 1.134042,0.807928 1.6067,1.222999 0.630254,0.55824 1.189591,1.125937 1.969665,1.666199 0.313918,0.204118 0.636952,0.41698 1.182623,0.571196 0.262616,0.07634 0.668938,0.114138 0.999609,0.05825 0.501241,-0.08308 0.802798,-0.243281 1.080247,-0.391814 0.682978,-0.394599 1.144696,-0.821461 1.623589,-1.243136 0.622778,-0.552699 1.178036,-1.11455 1.95422,-1.648792 0.311779,-0.201391 0.633305,-0.411446 1.175575,-0.562761"
       stroke-linecap="round"
       stroke-linejoin="round"
       stroke-miterlimit="10"
       stroke-width="0.660591"
       id="path4065-5"
       style="font-size:25.4px;line-height:0;-inkscape-font-specification:sans-serif;text-align:center;text-anchor:middle;fill:none;stroke:url(#linearGradient343);stroke-width:0.665002;stroke-linecap:round;stroke-miterlimit:4;stroke-dasharray:none;stroke-opacity:1"
       sodipodi:nodetypes="ccccccccccccccccccccc" /><path
       fill="none"
       stroke="#02063b"
       paint-order="fill stroke markers"
       d="m 50.897676,93.165946 c 1.068162,-0.786715 1.767161,-1.617066 2.836688,-2.403613 0.330141,-0.22984 0.666405,-0.467085 1.224826,-0.652624 0.255794,-0.08592 0.65661,-0.153218 1.033251,-0.106955 0.49695,0.06295 0.801411,0.212896 1.073344,0.349863 0.6595,0.35909 1.098122,0.752118 1.547129,1.140259 0.672823,0.58867 1.254438,1.188844 2.064769,1.761124 0.318149,0.21132 0.644555,0.430857 1.192597,0.594313 0.25667,0.07808 0.654161,0.125587 0.996677,0.07491 0.49741,-0.07356 0.799286,-0.228142 1.073344,-0.370618 0.670932,-0.376686 1.120942,-0.78641 1.584463,-1.191138 0.645267,-0.569156 1.21269,-1.148427 2.001951,-1.700363 0.317037,-0.208282 0.642505,-0.425263 1.192527,-0.584105 0.259878,-0.07685 0.66177,-0.118333 0.996679,-0.06471 0.503315,0.07985 0.806115,0.239163 1.083462,0.386371 0.677014,0.387795 1.134042,0.807928 1.606699,1.222999 0.630256,0.55824 1.189594,1.125937 1.969669,1.666199 0.313918,0.204118 0.636956,0.41698 1.182623,0.571196 0.262616,0.07634 0.66894,0.114138 0.999612,0.05825 0.50124,-0.08308 0.802797,-0.243281 1.080247,-0.391814 0.682978,-0.394599 1.144696,-0.821461 1.623589,-1.243136"
       stroke-linecap="round"
       stroke-linejoin="round"
       stroke-miterlimit="10"
       stroke-width="0.660591"
       id="path4065-0-8"
       style="font-size:25.4px;line-height:0;-inkscape-font-specification:sans-serif;text-align:center;text-anchor:middle;fill:none;stroke:url(#linearGradient345);stroke-width:0.665002;stroke-linecap:round;stroke-miterlimit:4;stroke-dasharray:none;stroke-opacity:1"
       sodipodi:nodetypes="ccccccccccccccccccccc" /><path
       id="path3484"
       style="font-size:25.4px;line-height:0;-inkscape-font-specification:sans-serif;text-align:center;text-anchor:middle;fill:#b2b0af;fill-opacity:1;fill-rule:evenodd;stroke:none;stroke-width:0.039128"
       class="fil3"
       d="m 97.42186,72.009139 c -0.01757,5.5e-5 -0.03498,5.72e-4 -0.05271,10e-4 -0.56732,0.01473 -1.051743,0.22634 -1.453142,0.634586 -0.401398,0.408246 -0.598344,0.899251 -0.590145,1.473295 0.0082,0.574007 0.21656,1.061598 0.624769,1.46296 0.386911,0.380422 0.853953,0.575577 1.400948,0.584977 l 0.553454,-0.05788 c 0.365688,-0.08724 0.688211,-0.272621 0.967383,-0.556556 0.408011,-0.414971 0.607647,-0.909696 0.599447,-1.48363 -0.0082,-0.574081 -0.22142,-1.066629 -0.639755,-1.477946 -0.395487,-0.388855 -0.865441,-0.582553 -1.410249,-0.580843 z m -0.02274,0.976168 a 1.1025438,1.1025438 0 0 1 1.102258,1.102258 1.1025438,1.1025438 0 0 1 -1.102258,1.102775 1.1025438,1.1025438 0 0 1 -1.102775,-1.102775 1.1025438,1.1025438 0 0 1 1.102775,-1.102258 z" /><g
       id="g978"
       style="font-size:25.4px;line-height:0;-inkscape-font-specification:sans-serif;text-align:center;text-anchor:middle;fill:#b2b0af;fill-opacity:1;stroke:#f16917;stroke-width:0.264583"><path
         class="fil3"
         d="m 96.852221,69.418145 c 1.312647,-0.375528 2.879149,0.01978 4.027479,1.148848 1.14459,1.125392 1.56729,2.678565 1.22025,3.994618 l 1.1737,-0.02493 c 0.31138,-1.627338 -0.2313,-3.453548 -1.58895,-4.788421 -1.3674,-1.344462 -3.219253,-1.853891 -4.849676,-1.500241 z"
         id="path3486-7"
         inkscape:connector-curvature="0"
         style="fill:#b2b0af;fill-opacity:1;fill-rule:evenodd;stroke:none;stroke-width:0.039128" /><path
         class="fil3"
         d="M 100.27282,71.170102 C 99.272639,70.1867 97.942617,69.809031 96.855164,70.090279 l 0.01714,1.167352 c 0.752068,-0.308611 1.799914,-0.03738 2.588682,0.738155 0.796644,0.78329 1.083334,1.839496 0.772724,2.598396 l 1.17655,-0.025 c 0.26288,-1.092129 -0.13719,-2.41561 -1.13744,-3.399085 z"
         id="path3488-0"
         inkscape:connector-curvature="0"
         style="fill:#b2b0af;fill-opacity:1;fill-rule:evenodd;stroke:none;stroke-width:0.039128" /></g></g></svg>
