<?xml version="1.0" encoding="UTF-8" standalone="no"?>
<svg
   height="72"
   viewBox="0 0 72 72"
   width="72"
   version="1.1"
   id="svg189"
   sodipodi:docname="LinkedIn_icon.svg"
   inkscape:version="1.2.1 (9c6d41e410, 2022-07-14)"
   xml:space="preserve"
   xmlns:inkscape="http://www.inkscape.org/namespaces/inkscape"
   xmlns:sodipodi="http://sodipodi.sourceforge.net/DTD/sodipodi-0.dtd"
   xmlns="http://www.w3.org/2000/svg"
   xmlns:svg="http://www.w3.org/2000/svg"><defs
     id="defs193" /><sodipodi:namedview
     id="namedview191"
     pagecolor="#ffffff"
     bordercolor="#000000"
     borderopacity="0.25"
     inkscape:showpageshadow="2"
     inkscape:pageopacity="0.0"
     inkscape:pagecheckerboard="0"
     inkscape:deskcolor="#d1d1d1"
     showgrid="false"
     inkscape:zoom="2.5215231"
     inkscape:cx="-0.59487855"
     inkscape:cy="153.67696"
     inkscape:window-width="1350"
     inkscape:window-height="1230"
     inkscape:window-x="1194"
     inkscape:window-y="123"
     inkscape:window-maximized="0"
     inkscape:current-layer="g187" /><g
     fill="none"
     fill-rule="evenodd"
     id="g187"><path
       d="M8,72 L64,72 C68.418278,72 72,68.418278 72,64 L72,8 C72,3.581722 68.418278,-8.11624501e-16 64,0 L8,0 C3.581722,8.11624501e-16 -5.41083001e-16,3.581722 0,8 L0,64 C5.41083001e-16,68.418278 3.581722,72 8,72 Z"
       fill="#007EBB"
       id="path183"
       style="fill:#04b889;fill-opacity:1" /><path
       d="M62,62 L51.315625,62 L51.315625,43.8021149 C51.315625,38.8127542 49.4197917,36.0245323 45.4707031,36.0245323 C41.1746094,36.0245323 38.9300781,38.9261103 38.9300781,43.8021149 L38.9300781,62 L28.6333333,62 L28.6333333,27.3333333 L38.9300781,27.3333333 L38.9300781,32.0029283 C38.9300781,32.0029283 42.0260417,26.2742151 49.3825521,26.2742151 C56.7356771,26.2742151 62,30.7644705 62,40.051212 L62,62 Z M16.349349,22.7940133 C12.8420573,22.7940133 10,19.9296567 10,16.3970067 C10,12.8643566 12.8420573,10 16.349349,10 C19.8566406,10 22.6970052,12.8643566 22.6970052,16.3970067 C22.6970052,19.9296567 19.8566406,22.7940133 16.349349,22.7940133 Z M11.0325521,62 L21.769401,62 L21.769401,27.3333333 L11.0325521,27.3333333 L11.0325521,62 Z"
       fill="#FFF"
       id="path185"
       style="fill:#05041c;fill-opacity:1" /><g
       id="图层_2"
       data-name="图层 2"
       style="fill:#04b889;fill-opacity:1"
       transform="translate(-13.600428,147.73333)"><g
         id="Discord_Logos"
         data-name="Discord Logos"
         style="fill:#04b889;fill-opacity:1"><g
           id="Discord_Logo_-_Large_-_White"
           data-name="Discord Logo - Large - White"
           style="fill:#04b889;fill-opacity:1" /></g></g></g></svg>
