<?xml version="1.0" encoding="UTF-8" standalone="no"?>
<svg
   viewBox="0 0 91 81"
   fill="#fff"
   fill-rule="evenodd"
   stroke="#000"
   stroke-linecap="round"
   stroke-linejoin="round"
   version="1.1"
   id="svg7"
   sodipodi:docname="storage-blob.svg"
   inkscape:version="1.2.1 (9c6d41e410, 2022-07-14)"
   xmlns:inkscape="http://www.inkscape.org/namespaces/inkscape"
   xmlns:sodipodi="http://sodipodi.sourceforge.net/DTD/sodipodi-0.dtd"
   xmlns="http://www.w3.org/2000/svg"
   xmlns:svg="http://www.w3.org/2000/svg">
  <defs
     id="defs11">
    <inkscape:path-effect
       effect="powerclip"
       id="path-effect479"
       is_visible="true"
       lpeversion="1"
       inverse="true"
       flatten="false"
       hide_clip="false"
       message="Use fill-rule evenodd on &lt;b&gt;fill and stroke&lt;/b&gt; dialog if no flatten result after convert clip to paths." />
    <filter
       id="mask-powermask-path-effect425_inverse"
       inkscape:label="filtermask-powermask-path-effect425"
       style="color-interpolation-filters:sRGB"
       height="100"
       width="100"
       x="-50"
       y="-50">
      <feColorMatrix
         id="mask-powermask-path-effect425_primitive1"
         values="1"
         type="saturate"
         result="fbSourceGraphic" />
      <feColorMatrix
         id="mask-powermask-path-effect425_primitive2"
         values="-1 0 0 0 1 0 -1 0 0 1 0 0 -1 0 1 0 0 0 1 0 "
         in="fbSourceGraphic" />
    </filter>
    <clipPath
       clipPathUnits="userSpaceOnUse"
       id="clipPath463">
      <g
         id="g477"
         style="display:none">
        <g
           aria-label="10 "
           id="g469"
           style="font-size:18.6667px;line-height:0;font-family:'Franklin Gothic Demi';-inkscape-font-specification:'Franklin Gothic Demi';text-align:center;text-anchor:middle;fill:none;stroke:#ff0000;stroke-width:0.188976">
          <path
             d="m 34.651469,32.370696 v -2.561202 q 3.226568,-0.947919 4.210945,-2.533859 h 2.114587 V 37.62982 h 3.445319 v 2.27865 H 34.341573 v -2.27865 h 3.773444 v -7.118502 q -2.223962,1.348961 -3.463548,1.859378 z"
             style="fill:#ffffff;stroke:none"
             id="path465" />
          <path
             d="m 49.79082,40.099877 q -2.287764,0 -3.563808,-1.813806 -1.26693,-1.813805 -1.26693,-4.584643 0,-2.716151 1.239586,-4.566415 1.239585,-1.859378 3.609381,-1.859378 2.351567,0 3.609382,1.859378 1.257815,1.850264 1.257815,4.529956 0,2.743495 -1.26693,4.593759 -1.257814,1.841149 -3.618496,1.841149 z m 0.03646,-10.736999 q -1.02995,0 -1.440107,0.957033 -0.401043,0.947919 -0.401043,3.335944 0,2.406254 0.419272,3.345058 0.428386,0.938804 1.412763,0.938804 0.975262,0 1.412763,-0.920575 0.437501,-0.920575 0.437501,-3.244798 0,-2.552087 -0.428386,-3.481777 -0.428387,-0.929689 -1.412763,-0.929689 z"
             style="fill:#ffffff;stroke:none"
             id="path467" />
        </g>
        <g
           aria-label="01"
           id="g475"
           style="font-size:18.6667px;line-height:0;font-family:'Franklin Gothic Demi';-inkscape-font-specification:'Franklin Gothic Demi';text-align:center;text-anchor:middle;stroke:none;stroke-width:0.188976">
          <path
             d="m 38.715551,54.927529 q -2.287764,0 -3.563808,-1.813806 -1.26693,-1.813805 -1.26693,-4.584643 0,-2.716151 1.239586,-4.566415 1.239585,-1.859378 3.609381,-1.859378 2.351567,0 3.609382,1.859378 1.257815,1.850264 1.257815,4.529956 0,2.743495 -1.26693,4.593759 -1.257814,1.841149 -3.618496,1.841149 z M 38.75201,44.19053 q -1.02995,0 -1.440107,0.957033 -0.401043,0.947919 -0.401043,3.335944 0,2.406254 0.419272,3.345058 0.428386,0.938804 1.412763,0.938804 0.975262,0 1.412763,-0.920575 0.437501,-0.920575 0.437501,-3.244798 0,-2.552087 -0.428386,-3.481777 Q 39.736386,44.19053 38.75201,44.19053 Z"
             id="path471" />
          <path
             d="m 45.095771,47.198348 v -2.561202 q 3.226569,-0.947919 4.210946,-2.533859 h 2.114587 v 10.354185 h 3.445318 v 2.27865 H 44.785875 v -2.27865 h 3.773444 V 45.33897 q -2.223962,1.348961 -3.463548,1.859378 z"
             id="path473" />
        </g>
      </g>
      <path
         id="lpe_path-effect479"
         class="powerclip"
         d="m -4.5,-4.5 h 100 v 90 h -100 z m 39.151469,36.870696 q 1.239586,-0.510417 3.463548,-1.859378 v 7.118502 h -3.773444 v 2.27865 H 44.42232 V 37.62982 H 40.977001 V 27.275635 h -2.114587 q -0.984377,1.58594 -4.210945,2.533859 z m 15.139351,7.729181 q 2.360682,0 3.618496,-1.841149 1.26693,-1.850264 1.26693,-4.593759 0,-2.679692 -1.257815,-4.529956 -1.257815,-1.859378 -3.609382,-1.859378 -2.369796,0 -3.609381,1.859378 -1.239586,1.850264 -1.239586,4.566415 0,2.770838 1.26693,4.584643 1.276044,1.813806 3.563808,1.813806 z m 0.03646,-10.736999 q -1.02995,0 -1.440107,0.957033 -0.401043,0.947919 -0.401043,3.335944 0,2.406254 0.419272,3.345058 0.428386,0.938804 1.412763,0.938804 0.975262,0 1.412763,-0.920575 0.437501,-0.920575 0.437501,-3.244798 0,-2.552087 -0.428386,-3.481777 -0.428387,-0.929689 -1.412763,-0.929689 z M 38.715551,54.927529 q 2.360682,0 3.618496,-1.841149 1.26693,-1.850264 1.26693,-4.593759 0,-2.679692 -1.257815,-4.529956 -1.257815,-1.859378 -3.609382,-1.859378 -2.369796,0 -3.609381,1.859378 -1.239586,1.850264 -1.239586,4.566415 0,2.770838 1.26693,4.584643 1.276044,1.813806 3.563808,1.813806 z M 38.75201,44.19053 q -1.02995,0 -1.440107,0.957033 -0.401043,0.947919 -0.401043,3.335944 0,2.406254 0.419272,3.345058 0.428386,0.938804 1.412763,0.938804 0.975262,0 1.412763,-0.920575 0.437501,-0.920575 0.437501,-3.244798 0,-2.552087 -0.428386,-3.481777 Q 39.736386,44.19053 38.75201,44.19053 Z m 6.343761,3.007818 q 1.239586,-0.510417 3.463548,-1.859378 v 7.118502 h -3.773444 v 2.27865 h 10.080747 v -2.27865 H 51.421304 V 42.103287 h -2.114587 q -0.984377,1.58594 -4.210946,2.533859 z" />
    </clipPath>
  </defs>
  <sodipodi:namedview
     id="namedview9"
     pagecolor="#ffffff"
     bordercolor="#000000"
     borderopacity="0.25"
     inkscape:showpageshadow="2"
     inkscape:pageopacity="0.0"
     inkscape:pagecheckerboard="0"
     inkscape:deskcolor="#d1d1d1"
     showgrid="false"
     inkscape:zoom="12.679012"
     inkscape:cx="26.14557"
     inkscape:cy="36.990264"
     inkscape:window-width="2560"
     inkscape:window-height="1369"
     inkscape:window-x="-8"
     inkscape:window-y="-8"
     inkscape:window-maximized="1"
     inkscape:current-layer="svg7" />
  <path
     d="M 68.058,0.5 H 22.941 L 0.5,40.5 22.941,80.5 H 68.058 L 90.5,40.5 Z m 0.234,57.964 c 0,3.353 -2.805,6.227 -6.078,6.227 H 29.02 c -3.273,0 -6.078,-2.874 -6.078,-6.227 V 22.776 c 0,-3.353 2.805,-6.228 6.078,-6.228 h 24.545 4.675 0.702 l 9.351,9.581 v 5.03 27.306 z M 57.305,19.901 H 53.565 29.02 c -1.636,0 -2.805,1.198 -2.805,2.874 v 35.689 c 0,1.677 1.169,2.874 2.805,2.874 h 33.195 c 1.558888,-0.04061 2.80228,-1.314586 2.805,-2.874 V 27.805 h -7.48 v -7.904 z"
     fill="#0078d7"
     stroke="none"
     id="path354"
     sodipodi:nodetypes="ccccccccssssscccccccccsssscccccc"
     clip-path="url(#clipPath463)"
     inkscape:path-effect="#path-effect479"
     inkscape:original-d="M 68.058,0.5 H 22.941 L 0.5,40.5 22.941,80.5 H 68.058 L 90.5,40.5 Z m 0.234,57.964 c 0,3.353 -2.805,6.227 -6.078,6.227 H 29.02 c -3.273,0 -6.078,-2.874 -6.078,-6.227 V 22.776 c 0,-3.353 2.805,-6.228 6.078,-6.228 h 24.545 4.675 0.702 l 9.351,9.581 v 5.03 27.306 z M 57.305,19.901 H 53.565 29.02 c -1.636,0 -2.805,1.198 -2.805,2.874 v 35.689 c 0,1.677 1.169,2.874 2.805,2.874 h 33.195 c 1.558888,-0.04061 2.80228,-1.314586 2.805,-2.874 V 27.805 h -7.48 v -7.904 z" />
  <symbol
     id="A"
     overflow="visible">
    <path
       d="M67.558 0H22.441L0 40l22.441 40h45.117L90 40 67.558 0zm.234 57.964c0 3.353-2.805 6.227-6.078 6.227H28.52c-3.273 0-6.078-2.874-6.078-6.227V22.276c0-3.353 2.805-6.228 6.078-6.228h24.545 4.675.702l9.351 9.581v5.03 27.306zM41.61 46.467c0-.479-.234-.718-.234-.958s-.234-.479-.467-.718-.234-.24-.468-.24h-.701c-.468 0-.702 0-.935.24s-.468.479-.701.958-.234.958-.234 1.437v2.156 2.395c0 .719.234 1.197.468 1.437.234.479.468.719.701.719.234.24.468.24.935.24.234 0 .468 0 .701-.24a.51.51 0 0 0 .468-.479c.234-.24.234-.479.467-.718 0-.24.234-.479.234-.958 0-.239 0-.719.233-1.198v-1.437-1.676c-.467-.24-.467-.479-.467-.958zm10.52-18.683c0-.479-.234-.718-.234-.958s-.234-.479-.468-.719-.234-.24-.468-.24h-.701c-.467 0-.701 0-.935.24s-.468.479-.702.958-.233.958-.233 1.437v2.156 2.395c0 .719.233 1.198.467 1.437.234.479.468.719.701.719.234.24.467.24.935.24.234 0 .467 0 .701-.24a.51.51 0 0 0 .468-.479c.234-.24.234-.479.468-.719 0-.239.234-.479.234-.958 0-.239 0-.718.234-1.198v-1.437-1.677c-.234 0-.234-.479-.467-.958zm4.675-8.383h-3.74H28.52c-1.636 0-2.805 1.198-2.805 2.874v35.689c0 1.677 1.169 2.874 2.805 2.874h33.195a2.88 2.88 0 0 0 2.805-2.874V27.305h-7.48v-7.904zM36 26.587v-.239-.24l.234-.24 2.805-1.916h.234.234.234.468.701.467.234v.24V35.45h2.104.234l.233.24c.234.239 0 .239 0 .239v.479.479.239s0 .24-.233.24h-.234-7.247-.234l-.234-.24v-.239-.479-.479-.239s0-.24.234-.24h.234 2.571v-8.862l-2.104 1.198c-.234 0-.234.239-.467.239h-.234s0-.239-.234-.239v-.718-.479zm8.182 25.629c-.233.958-.467 1.677-.935 2.156-.468.718-.935 1.198-1.403 1.437-.701.239-1.403.479-2.338.479s-1.636-.24-2.338-.479a2.13 2.13 0 0 1-1.403-1.437c-.234-.718-.701-1.437-.701-2.156-.234-.958-.234-1.916-.234-2.874 0-1.198 0-2.156.234-2.874.234-.958.467-1.677.935-2.156s.935-1.198 1.403-1.437c.701-.24 1.403-.479 2.338-.479s1.636.239 2.337.479a2.13 2.13 0 0 1 1.403 1.437c.234.719.701 1.437.701 2.156.234.958.234 1.916.234 2.874 0 1.198 0 2.156-.234 2.874zm10.52 3.353v.24s0 .239-.234.239h-.234-7.247-.234l-.234-.239v-.24-.479-.479-.239s0-.239.234-.239h.234 2.572v-8.862l-2.104 1.198c-.234 0-.234.239-.468.239h-.234s0-.239-.234-.239v-.718-.479-.239-.24l.234-.24 2.805-1.916h.234.234.234.468.701.468.234v.24 11.258h2.104.234l.234.239v.239.479.479zm.234-22.036c-.234.958-.468 1.677-.935 2.156-.468.718-.935 1.198-1.403 1.437-.701.24-1.403.479-2.338.479s-1.636-.24-2.338-.479a2.13 2.13 0 0 1-1.403-1.437c-.234-.479-.701-1.437-.701-2.156s-.234-1.916-.234-2.874c0-1.198 0-2.156.234-2.874.234-.958.468-1.677.935-2.156.468-.718.935-1.198 1.403-1.437.701-.24 1.403-.479 2.338-.479s1.636.24 2.338.479a2.13 2.13 0 0 1 1.403 1.437c.234.718.701 1.437.701 2.156.234.958.234 1.916.234 2.874 0 1.198-.234 2.156-.234 2.874z"
       fill="#0078d7"
       stroke="none"
       id="path4" />
  </symbol>
</svg>
